<svg role="img" aria-hidden="true" focusable="false" data-prefix="oo" data-icon="explore" class="svg-inline--fa fa-explore fa-w-27" xmlns="http://www.w3.org/2000/svg" viewBox="0 0 30 18"><path fill="white" d="M24.0078 0.563241C26.5426 1.45412 28.6822 3.24179 29.8061 4.72792C30.0527 5.05402 30.0652 5.50652 29.8371 5.84647C29.6089 6.18641 29.1925 6.33553 28.8079 6.21507C27.8627 5.91905 26.5993 5.798 25.3762 6.16124C24.1828 6.51568 22.9783 7.34327 22.1 9.04876C21.0535 11.0807 21.5575 12.7887 22.5501 14.0612C23.0582 14.7126 23.6908 15.2379 24.2953 15.5966C24.9251 15.9705 25.4238 16.1052 25.6604 16.1052H29.0765C29.5862 16.1052 30 16.5293 30 17.0525C30 17.5758 29.5868 17.9999 29.0771 17.9999H25.6604C24.9596 17.9999 24.1293 17.6868 23.3715 17.237C22.5881 16.772 21.7742 16.0978 21.1094 15.2455C19.7563 13.5108 19.0096 10.9955 20.4683 8.16313C21.5852 5.99434 23.1984 4.83554 24.8633 4.34109C25.4089 4.17905 25.9546 4.08973 26.4845 4.05675C25.6081 3.37997 24.5535 2.75779 23.41 2.35589C21.2784 1.60674 18.9204 1.64148 16.7731 3.41616C14.4337 5.3496 12.9376 7.49177 11.6264 9.52508C11.4644 9.77622 11.304 10.0281 11.144 10.2794C10.0387 12.015 8.95259 13.7205 7.50797 14.9417C5.88801 16.3112 4.28464 17.0721 3.07966 17.4913C2.47696 17.701 1.97219 17.8258 1.61196 17.8989C1.43173 17.9354 1.28734 17.959 1.18454 17.9739C1.13313 17.9813 1.09208 17.9865 1.06212 17.99L1.02555 17.9941L1.01366 17.9954L1.00934 17.9958L1.00759 17.9959C1.00759 17.9959 1.00611 17.9961 0.922898 17.0525L1.00611 17.9961C0.498521 18.0433 0.0497776 17.6591 0.00381847 17.138C-0.0420482 16.6179 0.330583 16.1581 0.836617 16.1093L0.838049 16.1092L0.85169 16.1076C0.866596 16.1059 0.89215 16.1027 0.927663 16.0975C0.998713 16.0873 1.10945 16.0694 1.25436 16.04C1.54439 15.9812 1.9699 15.8768 2.48726 15.6968C3.5224 15.3366 4.91826 14.6764 6.33473 13.479C7.54551 12.4555 8.46264 11.0199 9.59202 9.25207C9.75239 9.00104 9.91704 8.74331 10.0874 8.47911C11.4271 6.40163 13.0494 4.06115 15.6157 1.94022C18.3741 -0.339472 21.4354 -0.340833 24.0078 0.563241Z"></path></svg>