<svg role="img" aria-hidden="true" focusable="false" data-prefix="oo" data-icon="today" class="svg-inline--fa fa-today fa-w-15" xmlns="http://www.w3.org/2000/svg" viewBox="0 0 16 18"><path fill="white" d="M13.0955 1.93968e-06L2.90446 0C1.30037 0 0 1.29762 0 2.89831V15.1017C0 16.7024 1.30037 18 2.90446 18H13.0955C14.6996 18 16 16.7024 16 15.1017L16 2.89831C16 1.29762 14.6996 1.93968e-06 13.0955 1.93968e-06ZM1.95071 8.68605L1.73248 8.78905L1.73249 2.89831C1.73249 2.25241 2.2572 1.72881 2.90446 1.72881H13.0955C13.7428 1.72881 14.2675 2.25241 14.2675 2.89831V8.78905L14.0493 8.68605C12.1873 7.80723 10.1438 7.32203 8 7.32203C5.85617 7.32203 3.81271 7.80723 1.95071 8.68605ZM14.1877 10.5707L14.2675 10.614V15.1017C14.2675 15.7476 13.7428 16.2712 13.0955 16.2712L2.90446 16.2712C2.2572 16.2712 1.73248 15.7476 1.73248 15.1017L1.73248 10.614L1.81226 10.5707C3.68347 9.55408 5.78255 8.98392 8 8.98392C10.2174 8.98392 12.3165 9.55408 14.1877 10.5707Z"></path></svg>