<svg id="logo" aria-hidden="true" focusable="false" data-prefix="oo" data-icon="logo" class="svg-inline--fa fa-logo fa-w-9" xmlns="http://www.w3.org/2000/svg" viewBox="0 0 25 48"><path fill="white" d="M13.3296 24C19.7067 24.4828 24.7273 29.6585 24.7273 35.9823C24.7273 42.6241 19.1919 48.0059 12.3606 48C5.53532 48 0 42.6182 0 35.9823C0 29.6585 5.02055 24.4828 11.3977 24.0059C5.02055 23.5231 0 18.3474 0 12.0236C0 5.38175 5.53532 0 12.3667 0C19.1919 0 24.7273 5.38175 24.7273 12.0177C24.7273 18.3415 19.7067 23.5172 13.3296 24ZM12.3606 3.49166C7.51569 3.49166 3.58524 7.30716 3.58524 12.0236C3.58524 16.7341 7.51569 20.5554 12.3606 20.5554C17.2055 20.5554 21.136 16.7399 21.136 12.0236C21.136 7.31305 17.2055 3.49166 12.3606 3.49166ZM12.3899 37.3406C13.1345 37.3406 13.738 36.7415 13.738 36.0025C13.738 35.2634 13.1345 34.6643 12.3899 34.6643C11.6454 34.6643 11.0418 35.2634 11.0418 36.0025C11.0418 36.7415 11.6454 37.3406 12.3899 37.3406Z"></path></svg>