<svg role="img" aria-hidden="true" focusable="false" data-prefix="oo" data-icon="tide" class="svg-inline--fa fa-tide fa-w-19" xmlns="http://www.w3.org/2000/svg" viewBox="0 0 80 68"><path fill="white" d="M7.33245 11.8856C4.71433 8.47012 3.14292 6.67638 0 6.67638V0C6.67424 0 10.1007 4.47971 12.4753 7.58428C12.5406 7.66962 12.6051 7.75393 12.6688 7.83708C15.287 11.2525 16.8584 13.0463 20.0013 13.0463C23.1442 13.0463 24.7156 11.2525 27.334 7.83697C27.3977 7.75396 27.462 7.66979 27.5272 7.58459C29.9023 4.47978 33.3291 0 40.0043 0C46.6772 0 50.1028 4.48021 52.4764 7.5845C52.5417 7.66992 52.6062 7.7543 52.67 7.83752C55.2875 11.2533 56.858 13.0463 59.9987 13.0463C63.1416 13.0463 64.7131 11.2525 67.3312 7.83708C67.3949 7.75393 67.4594 7.66962 67.5247 7.58427C69.8993 4.4797 73.3258 0 80 0V6.67638C76.8571 6.67638 75.2857 8.47012 72.6676 11.8856C72.6038 11.9687 72.5393 12.053 72.474 12.1384C70.0994 15.243 66.673 19.7227 59.9987 19.7227C53.3258 19.7227 49.9002 15.2424 47.5266 12.1382C47.4613 12.0527 47.3967 11.9684 47.333 11.8851C44.7155 8.46935 43.145 6.67638 40.0043 6.67638C36.8603 6.67638 35.2884 8.47049 32.6702 11.8857C32.6064 11.9689 32.5418 12.0533 32.4765 12.1388C30.1017 15.2433 26.6753 19.7227 20.0013 19.7227C13.327 19.7227 9.90059 15.2429 7.52595 12.1384C7.46067 12.053 7.39618 11.9687 7.33245 11.8856ZM7.33245 36.0242C4.71433 32.6088 3.14292 30.8151 0 30.8151V24.1387C6.67424 24.1387 10.1007 28.6184 12.4753 31.7229C12.5406 31.8083 12.6051 31.8926 12.6688 31.9758C15.287 35.3912 16.8584 37.1849 20.0013 37.1849C23.1442 37.1849 24.7156 35.3912 27.334 31.9756C27.3977 31.8926 27.462 31.8085 27.5272 31.7233C29.9023 28.6185 33.3291 24.1387 40.0043 24.1387C46.6772 24.1387 50.1028 28.6189 52.4764 31.7232C52.5417 31.8086 52.6062 31.893 52.67 31.9762C55.2875 35.392 56.858 37.1849 59.9987 37.1849C63.1416 37.1849 64.7131 35.3912 67.3312 31.9758C67.3949 31.8926 67.4594 31.8083 67.5247 31.7229C69.8993 28.6184 73.3258 24.1387 80 24.1387V30.8151C76.8571 30.8151 75.2857 32.6088 72.6676 36.0242C72.6038 36.1074 72.5393 36.1917 72.474 36.2771C70.0994 39.3816 66.673 43.8613 59.9987 43.8613C53.3258 43.8613 49.9002 39.3811 47.5266 36.2768C47.4613 36.1914 47.3967 36.107 47.333 36.0238C44.7155 32.608 43.145 30.8151 40.0043 30.8151C36.8603 30.8151 35.2884 32.6092 32.6702 36.0244C32.6064 36.1076 32.5418 36.192 32.4765 36.2775C30.1017 39.3819 26.6752 43.8613 20.0013 43.8613C13.327 43.8613 9.90059 39.3816 7.52595 36.277C7.46067 36.1917 7.39618 36.1074 7.33245 36.0242ZM7.33245 60.1629C4.71433 56.7475 3.14292 54.9537 0 54.9537V48.2774C6.67424 48.2774 10.1007 52.7571 12.4753 55.8616C12.5406 55.947 12.6051 56.0313 12.6688 56.1144C15.287 59.5299 16.8584 61.3236 20.0013 61.3236C23.1442 61.3236 24.7156 59.5299 27.334 56.1143C27.3977 56.0313 27.462 55.9471 27.5272 55.8619C29.9023 52.7571 33.3291 48.2774 40.0043 48.2774C46.6772 48.2774 50.1028 52.7575 52.4764 55.8618C52.5417 55.9473 52.6062 56.0316 52.67 56.1149C55.2875 59.5306 56.858 61.3236 59.9987 61.3236C63.1416 61.3236 64.7131 59.5299 67.3312 56.1144C67.3949 56.0313 67.4594 55.947 67.5247 55.8616C69.8993 52.757 73.3258 48.2774 80 48.2774V54.9537C76.8571 54.9537 75.2857 56.7475 72.6676 60.1629C72.6038 60.2461 72.5393 60.3304 72.474 60.4157C70.0994 63.5203 66.673 68 59.9987 68C53.3258 68 49.9002 63.5198 47.5266 60.4155C47.4613 60.3301 47.3967 60.2457 47.333 60.1625C44.7155 56.7467 43.145 54.9537 40.0043 54.9537C36.8603 54.9537 35.2884 56.7478 32.6702 60.163C32.6064 60.2463 32.5418 60.3307 32.4765 60.4162C30.1017 63.5206 26.6752 68 20.0013 68C13.327 68 9.90059 63.5203 7.52595 60.4157C7.46067 60.3304 7.39618 60.2461 7.33245 60.1629Z"></path></svg>