<svg width="1029" height="404" viewBox="0 0 1029 404" fill="none" xmlns="http://www.w3.org/2000/svg">
<g opacity="0.15">
<path d="M1.51297e-05 19.3242C9.09483 19.3242 13.6421 24.5161 21.2183 34.4018C21.4027 34.6425 21.5893 34.8865 21.7782 35.1336C28.6498 44.1195 38.5651 57.0856 57.8787 57.0856C77.1915 57.0856 87.1069 44.1204 93.9788 35.1348C94.168 34.8874 94.3548 34.6431 94.5395 34.4021C102.116 24.5172 106.664 19.3242 115.762 19.3242C124.851 19.3242 129.395 24.5139 136.97 34.4006C137.148 34.633 137.328 34.8685 137.51 35.1068L137.53 35.1329C144.399 44.118 154.312 57.0856 173.621 57.0856C192.935 57.0856 202.85 44.1195 209.722 35.1336C209.911 34.8865 210.097 34.6425 210.282 34.4018C217.858 24.5161 222.405 19.3242 231.5 19.3242C240.595 19.3242 245.142 24.5161 252.718 34.4018L253.278 35.1336C260.15 44.1195 270.065 57.0856 289.379 57.0856C308.691 57.0856 318.607 44.1204 325.479 35.1348C325.668 34.8874 325.855 34.6431 326.039 34.4021C333.616 24.5172 338.164 19.3242 347.262 19.3242C356.351 19.3242 360.895 24.5139 368.47 34.4006C368.654 34.6414 368.841 34.8857 369.03 35.1329C375.899 44.118 385.812 57.0856 405.121 57.0856C424.435 57.0856 434.35 44.1195 441.222 35.1336L441.248 35.0995C441.428 34.8641 441.606 34.6314 441.782 34.4018C449.358 24.5161 453.905 19.3242 463 19.3242C472.095 19.3242 476.642 24.5161 484.218 34.4018C484.403 34.6425 484.589 34.8865 484.778 35.1336C491.65 44.1195 501.565 57.0856 520.879 57.0856C540.192 57.0856 550.107 44.1204 556.979 35.1348L556.99 35.1198C557.176 34.8775 557.359 34.6382 557.539 34.4021C565.116 24.5172 569.664 19.3242 578.762 19.3242C587.851 19.3242 592.395 24.5139 599.97 34.4006C600.109 34.5818 600.249 34.7649 600.39 34.9497L600.53 35.1329C607.399 44.118 617.312 57.0856 636.621 57.0856C655.935 57.0856 665.85 44.1195 672.722 35.1336L673.282 34.4018C680.858 24.5161 685.405 19.3242 694.5 19.3242C703.595 19.3242 708.142 24.5161 715.718 34.4018C715.903 34.6425 716.089 34.8865 716.278 35.1336C723.15 44.1195 733.065 57.0856 752.379 57.0856C771.692 57.0856 781.607 44.1204 788.479 35.1348L789.039 34.4021C796.616 24.5172 801.164 19.3242 810.262 19.3242C819.351 19.3242 823.895 24.5139 831.47 34.4006L832.03 35.1329C838.899 44.118 848.812 57.0856 868.121 57.0856C887.435 57.0856 897.35 44.1195 904.222 35.1336C904.411 34.8865 904.597 34.6425 904.782 34.4018C912.358 24.5161 916.905 19.3242 926 19.3242C935.095 19.3242 939.642 24.5161 947.218 34.4018L947.778 35.1336C954.65 44.1195 964.565 57.0856 983.879 57.0856C1003.19 57.0856 1013.11 44.1204 1019.98 35.1348L1019.99 35.1198L1020.54 34.4021C1028.12 24.5172 1032.66 19.3242 1041.76 19.3242C1050.85 19.3242 1055.4 24.5139 1062.97 34.4006L1063.53 35.1329C1070.4 44.118 1080.31 57.0856 1099.62 57.0856C1118.93 57.0856 1128.85 44.1195 1135.72 35.1336L1136.28 34.4018C1143.86 24.5161 1148.41 19.3242 1157.5 19.3242C1166.59 19.3242 1171.14 24.5161 1178.72 34.4018C1178.9 34.6425 1179.09 34.8865 1179.28 35.1336C1186.15 44.1195 1196.07 57.0856 1215.38 57.0856C1234.69 57.0856 1244.61 44.1204 1251.48 35.1348L1252.04 34.4021C1259.62 24.5172 1264.16 19.3242 1273.26 19.3242C1282.35 19.3242 1286.9 24.5139 1294.47 34.4006L1295.03 35.1329C1301.9 44.118 1311.81 57.0856 1331.12 57.0856C1350.43 57.0856 1360.35 44.1195 1367.22 35.1336L1367.78 34.4018C1375.36 24.5161 1379.91 19.3242 1389 19.3242V1.29216e-05C1369.69 1.18436e-05 1359.77 12.9661 1352.9 21.9521C1352.71 22.1991 1352.52 22.4431 1352.34 22.6838C1344.76 32.5696 1340.22 37.7614 1331.12 37.7614C1322.03 37.7614 1317.49 32.5718 1309.91 22.6851L1309.35 21.9527C1302.48 12.9676 1292.57 7.53932e-06 1273.26 6.46151e-06C1253.95 5.38333e-06 1244.03 12.9664 1237.16 21.953L1236.6 22.6835C1229.02 32.5695 1224.47 37.7614 1215.38 37.7614C1206.28 37.7614 1201.74 32.5696 1194.16 22.6838L1193.6 21.9521C1186.73 12.9661 1176.81 0 1157.5 0C1138.19 0 1128.27 12.9661 1121.4 21.9521C1121.21 22.1991 1121.02 22.4431 1120.84 22.6838C1113.26 32.5696 1108.72 37.7614 1099.62 37.7614C1090.53 37.7614 1085.99 32.5718 1078.41 22.6851C1078.23 22.4442 1078.04 22.2 1077.85 21.9527C1070.98 12.9676 1061.07 7.53932e-06 1041.76 6.46151e-06C1022.45 5.38333e-06 1012.53 12.9664 1005.66 21.953C1005.47 22.1996 1005.28 22.4432 1005.1 22.6835C997.521 32.5695 992.974 37.7614 983.879 37.7614C974.784 37.7614 970.237 32.5696 962.66 22.6838L962.1 21.9521C955.229 12.9661 945.314 0 926 1.29216e-05C906.686 1.18436e-05 896.771 12.9661 889.9 21.9521L889.34 22.6838C881.763 32.5696 877.216 37.7614 868.121 37.7614C859.033 37.7614 854.488 32.5718 846.914 22.6851L846.354 21.9527C839.485 12.9676 829.572 7.53932e-06 810.262 6.46151e-06C790.946 5.38333e-06 781.03 12.9664 774.157 21.953C773.968 22.1996 773.782 22.4432 773.598 22.6835C766.021 32.5695 761.474 37.7614 752.379 37.7614C743.284 37.7614 738.737 32.5696 731.16 22.6838L730.6 21.9521C723.729 12.9661 713.814 0 694.5 0C675.186 0 665.271 12.9661 658.4 21.9521C658.211 22.1991 658.024 22.4431 657.84 22.6838C650.263 32.5696 645.716 37.7614 636.621 37.7614C627.533 37.7614 622.988 32.5718 615.414 22.6851C615.229 22.4442 615.043 22.2 614.854 21.9527C607.985 12.9676 598.072 7.53932e-06 578.762 6.46151e-06C559.446 5.38333e-06 549.53 12.9664 542.657 21.953L542.442 22.2339C542.326 22.385 542.212 22.5349 542.098 22.6835C534.521 32.5695 529.974 37.7614 520.879 37.7614C511.784 37.7614 507.237 32.5696 499.66 22.6838C499.476 22.4431 499.289 22.1991 499.1 21.9521C492.229 12.9661 482.314 0 463 1.29216e-05C443.686 1.18436e-05 433.771 12.9661 426.9 21.9521C426.711 22.1991 426.524 22.4431 426.34 22.6838C418.763 32.5696 414.216 37.7614 405.121 37.7614C396.033 37.7614 391.488 32.5718 383.914 22.6851L383.354 21.9527C376.485 12.9676 366.572 7.53932e-06 347.262 6.46151e-06C327.946 5.38333e-06 318.03 12.9664 311.157 21.953C310.968 22.1996 310.782 22.4432 310.598 22.6835C303.021 32.5695 298.474 37.7614 289.379 37.7614C280.284 37.7614 275.737 32.5696 268.16 22.6838C267.976 22.4431 267.789 22.1991 267.6 21.9521C260.729 12.9661 250.814 0 231.5 0C212.186 0 202.271 12.9661 195.4 21.9521L195.267 22.1259C195.123 22.3138 194.981 22.4998 194.84 22.6838C187.263 32.5696 182.716 37.7614 173.621 37.7614C164.533 37.7614 159.988 32.5718 152.414 22.6851C152.241 22.4599 152.067 22.2318 151.891 22.0011L151.854 21.9527C144.985 12.9676 135.072 7.53932e-06 115.762 6.46151e-06C96.4461 5.38333e-06 86.5297 12.9664 79.6569 21.953L79.6411 21.9736C79.4579 22.2132 79.2768 22.4499 79.0978 22.6835C71.5208 32.5695 66.9736 37.7614 57.8787 37.7614C48.7839 37.7614 44.2366 32.5696 36.6604 22.6838C36.476 22.4431 36.2894 22.1991 36.1005 21.9521C29.2289 12.9661 19.3136 0 1.59724e-05 0L1.51297e-05 19.3242Z" fill="url(#paint0_linear)"/>
<path d="M1.20826e-05 89.1917C9.09483 89.1917 13.6421 94.3835 21.2183 104.269L21.7782 105.001C28.6498 113.987 38.5651 126.953 57.8787 126.953C77.1915 126.953 87.1069 113.988 93.9788 105.002L94.5395 104.27C102.116 94.3846 106.664 89.1917 115.762 89.1917C124.851 89.1917 129.395 94.3813 136.97 104.268C137.154 104.509 137.341 104.753 137.53 105C144.399 113.985 154.312 126.953 173.621 126.953C192.935 126.953 202.85 113.987 209.722 105.001L210.282 104.269C217.858 94.3835 222.405 89.1917 231.5 89.1917C240.595 89.1917 245.142 94.3835 252.718 104.269C252.903 104.51 253.089 104.754 253.278 105.001C260.15 113.987 270.065 126.953 289.379 126.953C308.691 126.953 318.607 113.988 325.479 105.002L326.039 104.27C333.616 94.3846 338.164 89.1917 347.262 89.1917C356.351 89.1917 360.895 94.3813 368.47 104.268C368.637 104.486 368.806 104.708 368.977 104.931L369.03 105C375.899 113.985 385.812 126.953 405.121 126.953C424.435 126.953 434.35 113.987 441.222 105.001L441.782 104.269C449.358 94.3835 453.905 89.1917 463 89.1917C472.095 89.1917 476.642 94.3835 484.218 104.269C484.403 104.51 484.589 104.754 484.778 105.001C491.65 113.987 501.565 126.953 520.879 126.953C540.191 126.953 550.107 113.988 556.979 105.002C557.168 104.755 557.355 104.511 557.539 104.27C565.116 94.3846 569.664 89.1917 578.762 89.1917C587.851 89.1917 592.395 94.3813 599.97 104.268L600.53 105C607.399 113.985 617.312 126.953 636.621 126.953C655.935 126.953 665.85 113.987 672.722 105.001C672.911 104.754 673.097 104.51 673.282 104.269C680.858 94.3835 685.405 89.1917 694.5 89.1917C703.595 89.1917 708.142 94.3835 715.718 104.269C715.903 104.51 716.089 104.754 716.278 105.001C723.15 113.987 733.065 126.953 752.379 126.953C771.692 126.953 781.607 113.988 788.479 105.002L789.039 104.27C796.616 94.3846 801.164 89.1917 810.262 89.1917C819.351 89.1917 823.895 94.3813 831.47 104.268L832.03 105C838.899 113.985 848.812 126.953 868.121 126.953C887.435 126.953 897.35 113.987 904.222 105.001C904.411 104.754 904.597 104.51 904.782 104.269C912.358 94.3835 916.905 89.1917 926 89.1917C935.095 89.1917 939.642 94.3835 947.218 104.269C947.403 104.51 947.589 104.754 947.778 105.001C954.65 113.987 964.565 126.953 983.879 126.953C1003.19 126.953 1013.11 113.988 1019.98 105.002L1020.54 104.27C1028.12 94.3846 1032.66 89.1917 1041.76 89.1917C1050.85 89.1917 1055.4 94.3813 1062.97 104.268C1063.12 104.458 1063.26 104.65 1063.41 104.843L1063.53 105C1070.4 113.985 1080.31 126.953 1099.62 126.953C1118.93 126.953 1128.85 113.987 1135.72 105.001C1135.91 104.754 1136.1 104.51 1136.28 104.269C1143.86 94.3835 1148.41 89.1917 1157.5 89.1917C1166.59 89.1917 1171.14 94.3835 1178.72 104.269C1178.9 104.51 1179.09 104.754 1179.28 105.001C1186.15 113.987 1196.07 126.953 1215.38 126.953C1234.69 126.953 1244.61 113.988 1251.48 105.002L1251.58 104.874C1251.73 104.671 1251.89 104.469 1252.04 104.27C1259.62 94.3846 1264.16 89.1917 1273.26 89.1917C1282.35 89.1917 1286.9 94.3813 1294.47 104.268C1294.62 104.458 1294.76 104.65 1294.91 104.843L1295.03 105C1301.9 113.985 1311.81 126.953 1331.12 126.953C1350.43 126.953 1360.35 113.987 1367.22 105.001L1367.78 104.269C1375.36 94.3835 1379.91 89.1917 1389 89.1917V69.8675C1369.69 69.8675 1359.77 82.8336 1352.9 91.8195L1352.74 92.0267L1352.34 92.5513C1344.76 102.437 1340.22 107.629 1331.12 107.629C1322.03 107.629 1317.49 102.439 1309.91 92.5525C1309.73 92.3116 1309.54 92.0674 1309.35 91.8201C1302.48 82.835 1292.57 69.8674 1273.26 69.8674C1253.95 69.8674 1244.03 82.8338 1237.16 91.8204L1237.15 91.8342L1236.82 92.2634L1236.6 92.5509C1229.02 102.437 1224.47 107.629 1215.38 107.629C1206.28 107.629 1201.74 102.437 1194.16 92.5512C1193.98 92.3106 1193.79 92.0666 1193.6 91.8195C1186.73 82.8336 1176.81 69.8674 1157.5 69.8674C1138.19 69.8674 1128.27 82.8336 1121.4 91.8195L1121.28 91.9816C1121.13 92.1734 1120.98 92.3634 1120.84 92.5513C1113.26 102.437 1108.72 107.629 1099.62 107.629C1090.53 107.629 1085.99 102.439 1078.41 92.5525C1078.23 92.3116 1078.04 92.0674 1077.85 91.8201C1070.98 82.835 1061.07 69.8674 1041.76 69.8674C1022.45 69.8674 1012.53 82.8338 1005.66 91.8204L1005.1 92.5509C997.521 102.437 992.974 107.629 983.879 107.629C974.784 107.629 970.237 102.437 962.66 92.5512C962.476 92.3106 962.289 92.0666 962.1 91.8195C955.229 82.8336 945.314 69.8674 926 69.8675C906.686 69.8675 896.771 82.8336 889.9 91.8195L889.34 92.5513C881.763 102.437 877.216 107.629 868.121 107.629C859.033 107.629 854.488 102.439 846.914 92.5525C846.729 92.3116 846.543 92.0674 846.354 91.8201C839.485 82.835 829.572 69.8674 810.262 69.8674C790.946 69.8674 781.03 82.8338 774.157 91.8204L774.146 91.8342C773.961 92.0761 773.779 92.3151 773.598 92.5509C766.021 102.437 761.474 107.629 752.379 107.629C743.284 107.629 738.737 102.437 731.16 92.5512C731.046 92.4015 730.93 92.2504 730.814 92.0981L730.6 91.8195C723.729 82.8336 713.814 69.8674 694.5 69.8674C675.186 69.8674 665.271 82.8336 658.4 91.8195L657.84 92.5513C650.263 102.437 645.716 107.629 636.621 107.629C627.533 107.629 622.988 102.439 615.414 92.5525C615.229 92.3116 615.043 92.0674 614.854 91.8201C607.985 82.835 598.072 69.8674 578.762 69.8674C559.446 69.8674 549.53 82.8338 542.657 91.8204L542.539 91.9739C542.391 92.1682 542.244 92.3606 542.098 92.5509C534.521 102.437 529.974 107.629 520.879 107.629C511.784 107.629 507.237 102.437 499.66 92.5512C499.476 92.3106 499.289 92.0666 499.1 91.8195C492.229 82.8336 482.314 69.8674 463 69.8675C443.686 69.8675 433.771 82.8336 426.9 91.8195L426.88 91.8447C426.698 92.0831 426.518 92.3187 426.34 92.5513C418.763 102.437 414.216 107.629 405.121 107.629C396.033 107.629 391.488 102.439 383.914 92.5525C383.729 92.3116 383.543 92.0674 383.354 91.8201C376.485 82.835 366.572 69.8674 347.262 69.8674C327.946 69.8674 318.03 82.8338 311.157 91.8204L310.598 92.5509C303.021 102.437 298.474 107.629 289.379 107.629C280.284 107.629 275.737 102.437 268.16 92.5512L267.6 91.8195C260.729 82.8336 250.814 69.8674 231.5 69.8674C212.186 69.8674 202.271 82.8336 195.4 91.8195L195.38 91.8452C195.198 92.0835 195.018 92.3189 194.84 92.5513C187.263 102.437 182.716 107.629 173.621 107.629C164.533 107.629 159.988 102.439 152.414 92.5525C152.266 92.3593 152.116 92.164 151.966 91.9667L151.854 91.8201C144.985 82.835 135.072 69.8674 115.762 69.8674C96.446 69.8674 86.5297 82.8338 79.6569 91.8204C79.4683 92.067 79.282 92.3106 79.0978 92.5509C71.5208 102.437 66.9736 107.629 57.8787 107.629C48.7839 107.629 44.2366 102.437 36.6604 92.5512C36.476 92.3106 36.2894 92.0666 36.1005 91.8195C29.2289 82.8336 19.3136 69.8674 1.29254e-05 69.8674L1.20826e-05 89.1917Z" fill="url(#paint1_linear)"/>
<path d="M9.03553e-06 159.059C9.09483 159.059 13.6421 164.251 21.2183 174.137C21.4027 174.377 21.5893 174.621 21.7782 174.868C28.6498 183.854 38.5651 196.82 57.8787 196.82C77.1915 196.82 87.1069 183.855 93.9788 174.87L94.5395 174.137C102.116 164.252 106.664 159.059 115.762 159.059C124.851 159.059 129.395 164.249 136.97 174.135L137.53 174.868C144.399 183.853 154.312 196.821 173.621 196.821C192.935 196.821 202.85 183.854 209.722 174.868C209.911 174.621 210.097 174.377 210.282 174.137C217.858 164.251 222.405 159.059 231.5 159.059C240.595 159.059 245.142 164.251 252.718 174.137L253.278 174.868C260.15 183.854 270.065 196.82 289.379 196.82C308.691 196.82 318.607 183.855 325.479 174.87L325.49 174.854C325.676 174.612 325.859 174.373 326.039 174.137C333.616 164.252 338.164 159.059 347.262 159.059C356.351 159.059 360.895 164.249 368.47 174.135L369.03 174.868C375.899 183.853 385.812 196.821 405.121 196.821C424.435 196.821 434.35 183.854 441.222 174.868L441.224 174.865L441.409 174.624C441.534 174.46 441.658 174.298 441.782 174.137C449.358 164.251 453.905 159.059 463 159.059C472.095 159.059 476.642 164.251 484.218 174.137C484.403 174.377 484.589 174.621 484.778 174.868C491.65 183.854 501.565 196.82 520.879 196.82C540.191 196.82 550.107 183.855 556.979 174.87C557.168 174.622 557.355 174.378 557.539 174.137C565.116 164.252 569.664 159.059 578.762 159.059C587.851 159.059 592.395 164.249 599.97 174.135L600.53 174.868C607.399 183.853 617.312 196.821 636.621 196.821C655.935 196.821 665.85 183.854 672.722 174.868C672.911 174.621 673.097 174.377 673.282 174.137C680.858 164.251 685.405 159.059 694.5 159.059C703.595 159.059 708.142 164.251 715.718 174.137C715.903 174.377 716.089 174.621 716.278 174.868C723.15 183.854 733.065 196.82 752.379 196.82C771.692 196.82 781.607 183.855 788.479 174.87L789.039 174.137C796.616 164.252 801.164 159.059 810.262 159.059C819.351 159.059 823.895 164.249 831.47 174.135L832.03 174.868C838.899 183.853 848.812 196.821 868.121 196.821C887.435 196.821 897.35 183.854 904.222 174.868C904.411 174.621 904.597 174.377 904.782 174.137C912.358 164.251 916.905 159.059 926 159.059C935.095 159.059 939.642 164.251 947.218 174.137C947.403 174.377 947.589 174.621 947.778 174.868C954.65 183.854 964.565 196.82 983.879 196.82C1003.19 196.82 1013.11 183.855 1019.98 174.87L1020.54 174.137C1028.12 164.252 1032.66 159.059 1041.76 159.059C1050.85 159.059 1055.4 164.249 1062.97 174.135L1063.53 174.868C1070.4 183.853 1080.31 196.821 1099.62 196.821C1118.93 196.821 1128.85 183.854 1135.72 174.868L1136.28 174.137C1143.86 164.251 1148.41 159.059 1157.5 159.059C1166.59 159.059 1171.14 164.251 1178.72 174.137C1178.9 174.377 1179.09 174.621 1179.28 174.868C1186.15 183.854 1196.07 196.82 1215.38 196.82C1234.69 196.82 1244.61 183.855 1251.48 174.87L1252.04 174.137C1259.62 164.252 1264.16 159.059 1273.26 159.059C1282.35 159.059 1286.9 164.249 1294.47 174.135C1294.65 174.376 1294.84 174.621 1295.03 174.868C1301.9 183.853 1311.81 196.821 1331.12 196.821C1350.43 196.821 1360.35 183.854 1367.22 174.868C1367.41 174.621 1367.6 174.377 1367.78 174.137C1375.36 164.251 1379.91 159.059 1389 159.059V139.735C1369.69 139.735 1359.77 152.701 1352.9 161.687C1352.71 161.934 1352.52 162.178 1352.34 162.419C1344.76 172.304 1340.22 177.496 1331.12 177.496C1322.03 177.496 1317.49 172.307 1309.91 162.42L1309.35 161.688C1302.48 152.702 1292.57 139.735 1273.26 139.735C1253.95 139.735 1244.03 152.701 1237.16 161.688L1236.6 162.418C1229.02 172.304 1224.47 177.496 1215.38 177.496C1206.28 177.496 1201.74 172.304 1194.16 162.419C1193.98 162.178 1193.79 161.934 1193.6 161.687C1186.73 152.701 1176.81 139.735 1157.5 139.735C1138.19 139.735 1128.27 152.701 1121.4 161.687L1121.27 161.853C1121.13 162.043 1120.98 162.232 1120.84 162.419C1113.26 172.304 1108.72 177.496 1099.62 177.496C1090.53 177.496 1085.99 172.307 1078.41 162.42C1078.23 162.179 1078.04 161.935 1077.85 161.688C1070.98 152.702 1061.07 139.735 1041.76 139.735C1022.45 139.735 1012.53 152.701 1005.66 161.688L1005.56 161.818C1005.4 162.02 1005.25 162.221 1005.1 162.418C997.521 172.304 992.974 177.496 983.879 177.496C974.784 177.496 970.237 172.304 962.66 162.419C962.476 162.178 962.289 161.934 962.1 161.687C955.229 152.701 945.314 139.735 926 139.735C906.686 139.735 896.771 152.701 889.9 161.687C889.711 161.934 889.524 162.178 889.34 162.419C881.763 172.304 877.216 177.496 868.121 177.496C859.033 177.496 854.488 172.307 846.914 162.42L846.354 161.688C839.485 152.702 829.572 139.735 810.262 139.735C790.946 139.735 781.03 152.701 774.157 161.688C773.968 161.934 773.782 162.178 773.598 162.418C766.021 172.304 761.474 177.496 752.379 177.496C743.284 177.496 738.737 172.304 731.16 162.419C731.002 162.212 730.842 162.003 730.681 161.792L730.6 161.687C723.729 152.701 713.814 139.735 694.5 139.735C675.186 139.735 665.271 152.701 658.4 161.687L657.84 162.419C650.263 172.304 645.716 177.496 636.621 177.496C627.533 177.496 622.988 172.307 615.414 162.42C615.229 162.179 615.043 161.935 614.854 161.688C607.985 152.702 598.072 139.735 578.762 139.735C559.446 139.735 549.53 152.701 542.657 161.688L542.098 162.418C534.521 172.304 529.974 177.496 520.879 177.496C511.784 177.496 507.237 172.304 499.66 162.419C499.476 162.178 499.289 161.934 499.1 161.687C492.229 152.701 482.314 139.735 463 139.735C443.686 139.735 433.771 152.701 426.9 161.687L426.34 162.419C418.763 172.304 414.216 177.496 405.121 177.496C396.033 177.496 391.488 172.307 383.914 162.42C383.729 162.179 383.543 161.935 383.354 161.688C376.485 152.702 366.572 139.735 347.262 139.735C327.946 139.735 318.03 152.701 311.157 161.688L311.155 161.691L310.598 162.418C303.021 172.304 298.474 177.496 289.379 177.496C280.284 177.496 275.737 172.304 268.16 162.419C267.976 162.178 267.789 161.934 267.6 161.687C260.729 152.701 250.814 139.735 231.5 139.735C212.186 139.735 202.271 152.701 195.4 161.687L195.392 161.696C195.206 161.94 195.022 162.181 194.84 162.419C187.263 172.304 182.716 177.496 173.621 177.496C164.533 177.496 159.988 172.307 152.414 162.42C152.237 162.189 152.058 161.955 151.877 161.718L151.854 161.688C144.985 152.702 135.072 139.735 115.762 139.735C96.446 139.735 86.5297 152.701 79.6569 161.688L79.6444 161.704L79.0978 162.418C71.5208 172.304 66.9736 177.496 57.8787 177.496C48.7839 177.496 44.2366 172.304 36.6604 162.419C36.4785 162.181 36.2944 161.941 36.1081 161.697L36.1005 161.687C29.2289 152.701 19.3136 139.735 9.8783e-06 139.735L9.03553e-06 159.059Z" fill="url(#paint2_linear)"/>
<path d="M252.718 241.581C245.142 231.696 240.595 226.504 231.5 226.504C222.405 226.504 217.858 231.696 210.282 241.581L209.722 242.313C202.85 251.299 192.935 264.265 173.621 264.265C154.312 264.265 144.399 251.298 137.53 242.312C137.341 242.065 137.154 241.821 136.97 241.58C129.395 231.693 124.851 226.504 115.762 226.504C106.664 226.504 102.116 231.697 94.5395 241.582C94.3548 241.823 94.168 242.067 93.9788 242.314C87.1069 251.3 77.1915 264.265 57.8787 264.265C38.5651 264.265 28.6498 251.299 21.7782 242.313C21.5893 242.066 21.4027 241.822 21.2183 241.581C13.6421 231.696 9.09483 226.504 6.09413e-06 226.504L6.9369e-06 207.179C19.3136 207.179 29.2289 220.146 36.1005 229.132L36.6604 229.863C44.2366 239.749 48.7839 244.941 57.8787 244.941C66.9736 244.941 71.5208 239.749 79.0978 229.863L79.6569 229.132C86.5297 220.146 96.4461 207.179 115.762 207.179C135.072 207.179 144.985 220.147 151.854 229.132C152.043 229.379 152.229 229.624 152.414 229.865C159.988 239.751 164.533 244.941 173.621 244.941C182.716 244.941 187.263 239.749 194.84 229.863C195.013 229.637 195.188 229.408 195.365 229.177L195.4 229.132C202.271 220.146 212.186 207.179 231.5 207.179C250.814 207.179 260.729 220.146 267.6 229.132L267.603 229.135C267.791 229.381 267.977 229.624 268.16 229.863C275.737 239.749 280.284 244.941 289.379 244.941C298.474 244.941 303.021 239.749 310.598 229.863C310.782 229.623 310.968 229.379 311.157 229.132C318.03 220.146 327.946 207.179 347.262 207.179C366.572 207.179 376.485 220.147 383.354 229.132L383.914 229.865C391.488 239.751 396.033 244.941 405.121 244.941C414.216 244.941 418.763 239.749 426.34 229.863C426.508 229.644 426.678 229.422 426.849 229.197L426.9 229.132C433.771 220.146 443.686 207.179 463 207.179C482.314 207.179 492.229 220.146 499.1 229.132L499.103 229.135L499.66 229.863C507.237 239.749 511.784 244.941 520.879 244.941C529.974 244.941 534.521 239.749 542.098 229.863C542.252 229.662 542.408 229.458 542.566 229.252L542.657 229.132C549.53 220.146 559.446 207.179 578.762 207.179C598.072 207.179 607.985 220.147 614.854 229.132L615.044 229.382C615.169 229.544 615.292 229.705 615.414 229.865C622.988 239.751 627.533 244.941 636.621 244.941C645.716 244.941 650.263 239.749 657.84 229.863C658.024 229.623 658.211 229.379 658.4 229.132C665.271 220.146 675.186 207.179 694.5 207.179C713.814 207.179 723.729 220.146 730.6 229.132C730.789 229.379 730.976 229.623 731.16 229.863C738.737 239.749 743.284 244.941 752.379 244.941C761.474 244.941 766.021 239.749 773.598 229.863C773.725 229.697 773.853 229.53 773.982 229.361L774.134 229.163L774.157 229.132C781.03 220.146 790.946 207.179 810.262 207.179C829.572 207.179 839.485 220.147 846.354 229.132C846.543 229.379 846.729 229.624 846.914 229.865C854.488 239.751 859.033 244.941 868.121 244.941C877.216 244.941 881.763 239.749 889.34 229.863C889.479 229.681 889.62 229.497 889.762 229.311L889.9 229.132C896.771 220.146 906.686 207.179 926 207.179C945.314 207.179 955.229 220.146 962.1 229.132C962.289 229.379 962.476 229.623 962.66 229.863C970.237 239.749 974.784 244.941 983.879 244.941C992.974 244.941 997.521 239.749 1005.1 229.863C1005.28 229.623 1005.47 229.379 1005.66 229.132C1012.53 220.146 1022.45 207.179 1041.76 207.179C1061.07 207.179 1070.98 220.147 1077.85 229.132C1078.04 229.379 1078.23 229.624 1078.41 229.865C1085.99 239.751 1090.53 244.941 1099.62 244.941C1108.72 244.941 1113.26 239.749 1120.84 229.863C1120.98 229.681 1121.12 229.497 1121.26 229.311L1121.4 229.132C1128.27 220.146 1138.19 207.179 1157.5 207.179C1176.81 207.179 1186.73 220.146 1193.6 229.132C1193.79 229.379 1193.98 229.623 1194.16 229.863C1201.74 239.749 1206.28 244.941 1215.38 244.941C1224.47 244.941 1229.02 239.749 1236.6 229.863C1236.77 229.633 1236.95 229.399 1237.13 229.163L1237.16 229.132C1244.03 220.146 1253.95 207.179 1273.26 207.179C1292.57 207.179 1302.48 220.147 1309.35 229.132L1309.5 229.323L1309.91 229.865C1317.49 239.751 1322.03 244.941 1331.12 244.941C1340.22 244.941 1344.76 239.749 1352.34 229.863C1352.48 229.681 1352.62 229.497 1352.76 229.311L1352.9 229.132C1359.77 220.146 1369.69 207.179 1389 207.179V226.504C1379.91 226.504 1375.36 231.696 1367.78 241.581C1367.61 241.804 1367.44 242.03 1367.26 242.259L1367.25 242.275L1367.22 242.313C1360.35 251.299 1350.43 264.265 1331.12 264.265C1311.81 264.265 1301.9 251.298 1295.03 242.312L1294.47 241.58C1286.9 231.693 1282.35 226.504 1273.26 226.504C1264.16 226.504 1259.62 231.697 1252.04 241.582C1251.85 241.823 1251.67 242.067 1251.48 242.314C1244.61 251.3 1234.69 264.265 1215.38 264.265C1196.07 264.265 1186.15 251.299 1179.28 242.313C1179.09 242.066 1178.9 241.822 1178.72 241.581C1171.14 231.696 1166.59 226.504 1157.5 226.504C1148.41 226.504 1143.86 231.696 1136.28 241.581C1136.1 241.822 1135.91 242.066 1135.72 242.313C1128.85 251.299 1118.93 264.265 1099.62 264.265C1080.31 264.265 1070.4 251.298 1063.53 242.312L1063.34 242.067L1063.3 242.01L1062.97 241.58C1055.4 231.693 1050.85 226.504 1041.76 226.504C1032.66 226.504 1028.12 231.697 1020.54 241.582C1020.35 241.823 1020.17 242.067 1019.98 242.314C1013.11 251.3 1003.19 264.265 983.879 264.265C964.565 264.265 954.65 251.299 947.778 242.313C947.589 242.066 947.403 241.822 947.218 241.581C939.642 231.696 935.095 226.504 926 226.504C916.905 226.504 912.358 231.696 904.782 241.581C904.597 241.822 904.411 242.066 904.222 242.313C897.35 251.299 887.435 264.265 868.121 264.265C848.812 264.265 838.899 251.298 832.03 242.312C831.841 242.065 831.654 241.821 831.47 241.58C823.895 231.693 819.351 226.504 810.262 226.504C801.164 226.504 796.616 231.697 789.039 241.582L788.479 242.314C781.607 251.3 771.692 264.265 752.379 264.265C733.065 264.265 723.15 251.299 716.278 242.313C716.089 242.066 715.903 241.822 715.718 241.581C708.142 231.696 703.595 226.504 694.5 226.504C685.405 226.504 680.858 231.696 673.282 241.581L672.722 242.313C665.85 251.299 655.935 264.265 636.621 264.265C617.312 264.265 607.399 251.298 600.53 242.312C600.341 242.065 600.154 241.821 599.97 241.58C592.395 231.693 587.851 226.504 578.762 226.504C569.664 226.504 565.116 231.697 557.539 241.582C557.405 241.757 557.269 241.934 557.133 242.113L556.979 242.314C550.107 251.3 540.191 264.265 520.879 264.265C501.565 264.265 491.65 251.299 484.778 242.313C484.589 242.066 484.403 241.822 484.218 241.581C476.642 231.696 472.095 226.504 463 226.504C453.905 226.504 449.358 231.696 441.782 241.581L441.222 242.313C434.35 251.299 424.435 264.265 405.121 264.265C385.812 264.265 375.899 251.298 369.03 242.312L368.47 241.58C360.895 231.693 356.351 226.504 347.262 226.504C338.164 226.504 333.616 231.697 326.039 241.582C325.855 241.823 325.668 242.067 325.479 242.314C318.607 251.3 308.691 264.265 289.379 264.265C270.065 264.265 260.15 251.299 253.278 242.313L252.718 241.581Z" fill="url(#paint3_linear)"/>
<path d="M252.718 311.449C245.142 301.563 240.595 296.371 231.5 296.371C222.405 296.371 217.858 301.563 210.282 311.449C210.098 311.688 209.912 311.931 209.724 312.177L209.722 312.181C202.85 321.166 192.935 334.133 173.621 334.133C154.312 334.133 144.399 321.165 137.53 312.18L136.97 311.448C129.395 301.561 124.851 296.371 115.762 296.371C106.664 296.371 102.116 301.564 94.5395 311.449L93.9788 312.182C87.1069 321.167 77.1915 334.133 57.8787 334.133C38.5651 334.133 28.6498 321.166 21.7782 312.18L21.748 312.141C21.5694 311.907 21.3929 311.677 21.2183 311.449C13.6421 301.563 9.09482 296.371 3.04707e-06 296.371L3.88984e-06 277.047C19.3136 277.047 29.2289 290.013 36.1005 298.999C36.2894 299.246 36.476 299.49 36.6604 299.731C44.2366 309.616 48.7839 314.808 57.8787 314.808C66.9736 314.808 71.5208 309.616 79.0978 299.73L79.6569 299C86.5297 290.013 96.446 277.047 115.762 277.047C135.072 277.047 144.985 290.014 151.854 299L151.893 299.052L151.894 299.053L151.93 299.1C152.093 299.313 152.254 299.524 152.414 299.732C159.988 309.619 164.533 314.808 173.621 314.808C182.716 314.808 187.263 309.616 194.84 299.731C195.012 299.506 195.186 299.278 195.362 299.048L195.4 298.999C202.271 290.013 212.186 277.047 231.5 277.047C250.814 277.047 260.729 290.013 267.6 298.999L267.603 299.002C267.791 299.248 267.977 299.491 268.16 299.731C275.737 309.616 280.284 314.808 289.379 314.808C298.474 314.808 303.021 309.616 310.598 299.73C310.781 299.491 310.967 299.249 311.155 299.003L311.157 299C318.03 290.013 327.946 277.047 347.262 277.047C366.572 277.047 376.485 290.014 383.354 299L383.397 299.057C383.572 299.285 383.744 299.51 383.914 299.732C391.488 309.619 396.033 314.808 405.121 314.808C414.216 314.808 418.763 309.616 426.34 299.731C426.524 299.49 426.711 299.246 426.9 298.999C433.771 290.013 443.686 277.047 463 277.047C482.314 277.047 492.229 290.013 499.1 298.999L499.103 299.002C499.291 299.248 499.477 299.491 499.66 299.731C507.237 309.616 511.784 314.808 520.879 314.808C529.974 314.808 534.521 309.616 542.098 299.73C542.282 299.49 542.468 299.247 542.657 299C549.53 290.013 559.446 277.047 578.762 277.047C598.072 277.047 607.985 290.014 614.854 299C615.043 299.247 615.229 299.491 615.414 299.732C622.988 309.619 627.533 314.808 636.621 314.808C645.716 314.808 650.263 309.616 657.84 299.731L658.4 298.999C665.271 290.013 675.186 277.047 694.5 277.047C713.814 277.047 723.729 290.013 730.6 298.999L730.64 299.05C730.815 299.28 730.989 299.507 731.16 299.731C738.737 309.616 743.284 314.808 752.379 314.808C761.474 314.808 766.021 309.616 773.598 299.73C773.771 299.505 773.945 299.276 774.122 299.045L774.157 299C781.03 290.013 790.946 277.047 810.262 277.047C829.572 277.047 839.485 290.014 846.354 299C846.543 299.247 846.729 299.491 846.914 299.732C854.488 309.619 859.033 314.808 868.121 314.808C877.216 314.808 881.763 309.616 889.34 299.731C889.524 299.49 889.711 299.246 889.9 298.999C896.771 290.013 906.686 277.047 926 277.047C945.314 277.047 955.229 290.013 962.1 298.999C962.289 299.246 962.476 299.49 962.66 299.731C970.237 309.616 974.784 314.808 983.879 314.808C992.974 314.808 997.521 309.616 1005.1 299.73C1005.28 299.49 1005.47 299.247 1005.66 299C1012.53 290.013 1022.45 277.047 1041.76 277.047C1061.07 277.047 1070.98 290.014 1077.85 299L1078.01 299.203C1078.15 299.381 1078.28 299.557 1078.41 299.732C1085.99 309.619 1090.53 314.808 1099.62 314.808C1108.72 314.808 1113.26 309.616 1120.84 299.731L1121.4 298.999C1128.27 290.013 1138.19 277.047 1157.5 277.047C1176.81 277.047 1186.73 290.013 1193.6 298.999C1193.79 299.246 1193.98 299.49 1194.16 299.731C1201.74 309.616 1206.28 314.808 1215.38 314.808C1224.47 314.808 1229.02 309.616 1236.6 299.73C1236.78 299.49 1236.97 299.247 1237.16 299C1244.03 290.013 1253.95 277.047 1273.26 277.047C1292.57 277.047 1302.48 290.014 1309.35 299L1309.48 299.17C1309.63 299.36 1309.77 299.547 1309.91 299.732C1317.49 309.619 1322.03 314.808 1331.12 314.808C1340.22 314.808 1344.76 309.616 1352.34 299.731C1352.52 299.49 1352.71 299.246 1352.9 298.999C1359.77 290.013 1369.69 277.047 1389 277.047V296.371C1379.91 296.371 1375.36 301.563 1367.78 311.449L1367.22 312.181C1360.35 321.166 1350.43 334.133 1331.12 334.133C1311.81 334.133 1301.9 321.165 1295.03 312.18C1294.84 311.933 1294.65 311.688 1294.47 311.448C1286.9 301.561 1282.35 296.371 1273.26 296.371C1264.16 296.371 1259.62 301.564 1252.04 311.449C1251.91 311.623 1251.77 311.799 1251.64 311.976L1251.48 312.182C1244.61 321.167 1234.69 334.133 1215.38 334.133C1196.07 334.133 1186.15 321.166 1179.28 312.18C1179.09 311.933 1178.9 311.689 1178.72 311.449C1171.14 301.563 1166.59 296.371 1157.5 296.371C1148.41 296.371 1143.86 301.563 1136.28 311.449L1135.76 312.125L1135.72 312.181C1128.85 321.166 1118.93 334.133 1099.62 334.133C1080.31 334.133 1070.4 321.165 1063.53 312.18L1062.97 311.448C1055.4 301.561 1050.85 296.371 1041.76 296.371C1032.66 296.371 1028.12 301.564 1020.54 311.449C1020.38 311.657 1020.22 311.867 1020.06 312.079L1019.98 312.182C1013.11 321.167 1003.19 334.133 983.879 334.133C964.565 334.133 954.65 321.166 947.778 312.18C947.589 311.933 947.403 311.689 947.218 311.449C939.642 301.563 935.095 296.371 926 296.371C916.905 296.371 912.358 301.563 904.782 311.449L904.222 312.181C897.35 321.166 887.435 334.133 868.121 334.133C848.812 334.133 838.899 321.165 832.03 312.18L831.47 311.448C823.895 301.561 819.351 296.371 810.262 296.371C801.164 296.371 796.616 301.564 789.039 311.449L788.479 312.182C781.607 321.167 771.691 334.133 752.379 334.133C733.065 334.133 723.15 321.166 716.278 312.18L715.718 311.449C708.142 301.563 703.595 296.371 694.5 296.371C685.405 296.371 680.858 301.563 673.282 311.449C673.097 311.689 672.911 311.933 672.722 312.181C665.85 321.166 655.935 334.133 636.621 334.133C617.312 334.133 607.399 321.165 600.53 312.18C600.341 311.933 600.154 311.688 599.97 311.448C592.395 301.561 587.851 296.371 578.762 296.371C569.664 296.371 565.116 301.564 557.539 311.449C557.38 311.657 557.22 311.867 557.057 312.079L556.979 312.182C550.107 321.167 540.191 334.133 520.879 334.133C501.565 334.133 491.65 321.166 484.778 312.18L484.747 312.139C484.569 311.906 484.392 311.676 484.218 311.449C476.642 301.563 472.095 296.371 463 296.371C453.905 296.371 449.358 301.563 441.782 311.449L441.658 311.61C441.514 311.798 441.369 311.988 441.222 312.181C434.35 321.166 424.435 334.133 405.121 334.133C385.812 334.133 375.899 321.165 369.03 312.18L369.008 312.15C368.826 311.913 368.647 311.679 368.47 311.448C360.895 301.561 356.351 296.371 347.262 296.371C338.164 296.371 333.616 301.564 326.039 311.449C325.855 311.69 325.668 311.934 325.479 312.182C318.607 321.167 308.691 334.133 289.379 334.133C270.065 334.133 260.15 321.166 253.278 312.18L252.718 311.449Z" fill="url(#paint4_linear)"/>
<path d="M252.718 381.316C245.142 371.43 240.595 366.239 231.5 366.239C222.405 366.239 217.858 371.43 210.282 381.316L209.722 382.048C202.85 391.034 192.935 404 173.621 404C154.312 404 144.399 391.032 137.53 382.047C137.341 381.8 137.154 381.556 136.97 381.315C129.395 371.428 124.851 366.239 115.762 366.239C106.664 366.239 102.116 371.431 94.5395 381.316C94.3548 381.557 94.1679 381.802 93.9788 382.049C87.1069 391.035 77.1915 404 57.8787 404C38.5651 404 28.6498 391.034 21.7782 382.048L21.2183 381.316C13.6421 371.43 9.09482 366.239 0 366.239V346.914C19.3136 346.914 29.2289 359.88 36.1005 368.866L36.103 368.87C36.291 369.116 36.4768 369.359 36.6604 369.598C44.2366 379.484 48.7839 384.676 57.8787 384.676C66.9736 384.676 71.5208 379.484 79.0978 369.598C79.282 369.358 79.4683 369.114 79.6569 368.867C86.5297 359.881 96.446 346.914 115.762 346.914C135.072 346.914 144.985 359.882 151.854 368.867C152.043 369.114 152.229 369.359 152.414 369.599C159.988 379.486 164.533 384.676 173.621 384.676C182.716 384.676 187.263 379.484 194.84 369.598C195.024 369.358 195.211 369.113 195.4 368.866C202.271 359.881 212.186 346.914 231.5 346.914C250.814 346.914 260.729 359.88 267.6 368.866L267.603 368.87C267.791 369.116 267.977 369.359 268.16 369.598C275.737 379.484 280.284 384.676 289.379 384.676C298.474 384.676 303.021 379.484 310.598 369.598L311.157 368.867C318.03 359.881 327.946 346.914 347.262 346.914C366.572 346.914 376.485 359.882 383.354 368.867C383.543 369.114 383.729 369.359 383.914 369.599C391.488 379.486 396.033 384.676 405.121 384.676C414.216 384.676 418.763 379.484 426.34 369.598C426.524 369.358 426.711 369.113 426.9 368.866C433.771 359.881 443.686 346.914 463 346.914V366.239C453.905 366.239 449.358 371.43 441.782 381.316C441.597 381.557 441.411 381.801 441.222 382.048C434.35 391.034 424.435 404 405.121 404C385.812 404 375.899 391.032 369.03 382.047C368.841 381.8 368.654 381.556 368.47 381.315C360.895 371.428 356.351 366.239 347.262 366.239C338.164 366.239 333.616 371.431 326.039 381.316L325.479 382.049C318.607 391.035 308.691 404 289.379 404C270.065 404 260.15 391.034 253.278 382.048C253.089 381.801 252.903 381.557 252.718 381.316Z" fill="url(#paint5_linear)"/>
<path d="M715.718 381.316C708.142 371.43 703.595 366.239 694.5 366.239C685.405 366.239 680.858 371.43 673.282 381.316L672.722 382.048C665.85 391.034 655.935 404 636.621 404C617.312 404 607.399 391.032 600.53 382.047L600.518 382.031C600.333 381.789 600.15 381.551 599.97 381.315C592.395 371.428 587.851 366.239 578.762 366.239C569.664 366.239 565.116 371.431 557.539 381.316C557.355 381.557 557.168 381.802 556.979 382.049C550.107 391.035 540.191 404 520.879 404C501.565 404 491.65 391.034 484.778 382.048L484.598 381.812C484.47 381.645 484.344 381.48 484.218 381.316C476.642 371.43 472.095 366.239 463 366.239V346.914C482.314 346.914 492.229 359.88 499.1 368.866L499.321 369.155C499.435 369.304 499.548 369.452 499.66 369.598C507.237 379.484 511.784 384.676 520.879 384.676C529.974 384.676 534.521 379.484 542.098 369.598C542.271 369.372 542.445 369.144 542.622 368.913L542.657 368.867C549.53 359.881 559.446 346.914 578.762 346.914C598.072 346.914 607.985 359.882 614.854 368.867L615.414 369.599C622.988 379.486 627.533 384.676 636.621 384.676C645.716 384.676 650.263 379.484 657.84 369.598C658.024 369.358 658.211 369.113 658.4 368.866C665.271 359.881 675.186 346.914 694.5 346.914C713.814 346.914 723.729 359.88 730.6 368.866L730.719 369.022C730.868 369.216 731.015 369.408 731.16 369.598C738.737 379.484 743.284 384.676 752.379 384.676C761.474 384.676 766.021 379.484 773.598 369.598C773.771 369.372 773.945 369.144 774.122 368.913L774.157 368.867C781.03 359.881 790.946 346.914 810.262 346.914C829.572 346.914 839.485 359.882 846.354 368.867L846.914 369.599C854.488 379.486 859.033 384.676 868.121 384.676C877.216 384.676 881.763 379.484 889.339 369.598L889.9 368.866C896.771 359.881 906.686 346.914 926 346.914C945.314 346.914 955.229 359.88 962.1 368.866L962.66 369.598C970.237 379.484 974.784 384.676 983.879 384.676C992.974 384.676 997.521 379.484 1005.1 369.598L1005.66 368.867C1012.53 359.881 1022.45 346.914 1041.76 346.914C1061.07 346.914 1070.98 359.882 1077.85 368.867C1078.04 369.114 1078.23 369.359 1078.41 369.599C1085.99 379.486 1090.53 384.676 1099.62 384.676C1108.72 384.676 1113.26 379.484 1120.84 369.598C1121.02 369.358 1121.21 369.113 1121.4 368.866C1128.27 359.881 1138.19 346.914 1157.5 346.914C1176.81 346.914 1186.73 359.88 1193.6 368.866C1193.79 369.113 1193.98 369.358 1194.16 369.598C1201.74 379.484 1206.28 384.676 1215.38 384.676C1224.47 384.676 1229.02 379.484 1236.6 369.598C1236.78 369.358 1236.97 369.114 1237.16 368.867C1244.03 359.881 1253.95 346.914 1273.26 346.914C1292.57 346.914 1302.48 359.882 1309.35 368.867L1309.91 369.599C1317.49 379.486 1322.03 384.676 1331.12 384.676C1340.22 384.676 1344.76 379.484 1352.34 369.598C1352.52 369.358 1352.71 369.113 1352.9 368.866C1359.77 359.881 1369.69 346.914 1389 346.914V366.239C1379.91 366.239 1375.36 371.43 1367.78 381.316L1367.26 381.993L1367.22 382.048C1360.35 391.034 1350.43 404 1331.12 404C1311.81 404 1301.9 391.032 1295.03 382.047L1294.47 381.315C1286.9 371.428 1282.35 366.239 1273.26 366.239C1264.16 366.239 1259.62 371.431 1252.04 381.316C1251.89 381.509 1251.74 381.703 1251.59 381.899L1251.48 382.049C1244.61 391.035 1234.69 404 1215.38 404C1196.07 404 1186.15 391.034 1179.28 382.048C1179.09 381.801 1178.9 381.557 1178.72 381.316C1171.14 371.43 1166.59 366.239 1157.5 366.239C1148.41 366.239 1143.86 371.43 1136.28 381.316L1135.72 382.048C1128.85 391.034 1118.93 404 1099.62 404C1080.31 404 1070.4 391.032 1063.53 382.047L1063.38 381.855C1063.24 381.673 1063.11 381.493 1062.97 381.315C1055.4 371.428 1050.85 366.239 1041.76 366.239C1032.66 366.239 1028.12 371.431 1020.54 381.316L1019.98 382.049C1013.11 391.035 1003.19 404 983.879 404C964.565 404 954.65 391.034 947.778 382.048L947.766 382.033L947.218 381.316C939.642 371.43 935.095 366.239 926 366.239C916.905 366.239 912.358 371.43 904.782 381.316L904.222 382.048C897.35 391.034 887.435 404 868.121 404C848.812 404 838.899 391.032 832.03 382.047L831.47 381.315C823.895 371.428 819.351 366.239 810.262 366.239C801.164 366.239 796.616 371.431 789.039 381.316L788.479 382.049C781.607 391.035 771.691 404 752.379 404C733.065 404 723.15 391.034 716.278 382.048L716.266 382.033C716.082 381.791 715.899 381.552 715.718 381.316Z" fill="url(#paint6_linear)"/>
</g>
<defs>
<linearGradient id="paint0_linear" x1="1041.75" y1="0" x2="1041.75" y2="562.763" gradientUnits="userSpaceOnUse">
<stop stop-color="#B3D4FF" stop-opacity="0"/>
<stop offset="1" stop-color="#B3D4FF"/>
</linearGradient>
<linearGradient id="paint1_linear" x1="1041.75" y1="0" x2="1041.75" y2="562.763" gradientUnits="userSpaceOnUse">
<stop stop-color="#B3D4FF" stop-opacity="0"/>
<stop offset="1" stop-color="#B3D4FF"/>
</linearGradient>
<linearGradient id="paint2_linear" x1="1041.75" y1="0" x2="1041.75" y2="562.763" gradientUnits="userSpaceOnUse">
<stop stop-color="#B3D4FF" stop-opacity="0"/>
<stop offset="1" stop-color="#B3D4FF"/>
</linearGradient>
<linearGradient id="paint3_linear" x1="1041.75" y1="0" x2="1041.75" y2="562.763" gradientUnits="userSpaceOnUse">
<stop stop-color="#B3D4FF" stop-opacity="0"/>
<stop offset="1" stop-color="#B3D4FF"/>
</linearGradient>
<linearGradient id="paint4_linear" x1="1041.75" y1="0" x2="1041.75" y2="562.763" gradientUnits="userSpaceOnUse">
<stop stop-color="#B3D4FF" stop-opacity="0"/>
<stop offset="1" stop-color="#B3D4FF"/>
</linearGradient>
<linearGradient id="paint5_linear" x1="1041.75" y1="0" x2="1041.75" y2="562.763" gradientUnits="userSpaceOnUse">
<stop stop-color="#B3D4FF" stop-opacity="0"/>
<stop offset="1" stop-color="#B3D4FF"/>
</linearGradient>
<linearGradient id="paint6_linear" x1="1041.75" y1="0" x2="1041.75" y2="562.763" gradientUnits="userSpaceOnUse">
<stop stop-color="#B3D4FF" stop-opacity="0"/>
<stop offset="1" stop-color="#B3D4FF"/>
</linearGradient>
</defs>
</svg>
